<?xml version="1.0" encoding="UTF-8" standalone="no"?>
<!-- Created with Inkscape (http://www.inkscape.org/) -->

<svg
   xmlns:dc="http://purl.org/dc/elements/1.1/"
   xmlns:cc="http://creativecommons.org/ns#"
   xmlns:rdf="http://www.w3.org/1999/02/22-rdf-syntax-ns#"
   xmlns:svg="http://www.w3.org/2000/svg"
   xmlns="http://www.w3.org/2000/svg"
   xmlns:sodipodi="http://sodipodi.sourceforge.net/DTD/sodipodi-0.dtd"
   xmlns:inkscape="http://www.inkscape.org/namespaces/inkscape"
   width="1080"
   height="1080"
   viewBox="0 0 1080 1080"
   id="svg2"
   version="1.1"
   inkscape:version="0.91 r13725"
   sodipodi:docname="2to33.svg">
  <defs
     id="defs4">
    <clipPath
       clipPathUnits="userSpaceOnUse"
       id="clipPath4643">
      <path
         sodipodi:type="star"
         style="opacity:1;fill:#000000;fill-opacity:1;stroke:none;stroke-width:10;stroke-miterlimit:4;stroke-dasharray:none;stroke-opacity:1"
         id="path4645"
         sodipodi:sides="6"
         sodipodi:cx="262.85712"
         sodipodi:cy="535.21936"
         sodipodi:r1="281.70038"
         sodipodi:r2="243.95969"
         sodipodi:arg1="0.78539816"
         sodipodi:arg2="1.3089969"
         inkscape:flatsided="true"
         inkscape:rounded="0"
         inkscape:randomized="0"
         d="M 462.04937,734.41161 189.94769,807.32103 -9.2445538,608.12878 63.664868,336.02711 335.76654,263.11769 534.95879,462.30994 Z"
         transform="matrix(1.0836413,0.62564057,-0.62564057,1.0836413,-459.20609,-1214.9651)" />
    </clipPath>
  </defs>
  <sodipodi:namedview
     id="base"
     pagecolor="#ffffff"
     bordercolor="#666666"
     borderopacity="1.0"
     inkscape:pageopacity="0"
     inkscape:pageshadow="2"
     inkscape:zoom="0.12374369"
     inkscape:cx="948.17684"
     inkscape:cy="518.8021"
     inkscape:document-units="px"
     inkscape:current-layer="layer1"
     showgrid="false"
     inkscape:window-width="1440"
     inkscape:window-height="778"
     inkscape:window-x="0"
     inkscape:window-y="1"
     inkscape:window-maximized="1"
     units="px" />
  <metadata
     id="metadata7">
    <rdf:RDF>
      <cc:Work
         rdf:about="">
        <dc:format>image/svg+xml</dc:format>
        <dc:type
           rdf:resource="http://purl.org/dc/dcmitype/StillImage" />
        <dc:title></dc:title>
      </cc:Work>
    </rdf:RDF>
  </metadata>
  <g
     inkscape:label="Calque 1"
     inkscape:groupmode="layer"
     id="layer1"
     transform="translate(0,27.637839)">
    <rect
       style="opacity:1;fill:#cccccc;fill-opacity:1;stroke:none;stroke-width:10;stroke-miterlimit:4;stroke-dasharray:none;stroke-opacity:1"
       id="rect4549"
       width="3123.3916"
       height="1826.3558"
       x="1596.041"
       y="-438.62299" />
    <g
       id="g4359"
       transform="translate(-1072.8992,188.35395)">
      <path
         transform="matrix(1.0837417,0.62569851,-0.62569851,1.0837417,434.11319,-316.43227)"
         d="M 462.04937,734.41161 189.94769,807.32103 -9.2445538,608.12878 63.664868,336.02711 335.76654,263.11769 534.95879,462.30994 Z"
         inkscape:randomized="0"
         inkscape:rounded="0"
         inkscape:flatsided="true"
         sodipodi:arg2="1.3089969"
         sodipodi:arg1="0.78539816"
         sodipodi:r2="243.95969"
         sodipodi:r1="281.70038"
         sodipodi:cy="535.21936"
         sodipodi:cx="262.85712"
         sodipodi:sides="6"
         id="path4312"
         style="opacity:1;fill:#246bb7;fill-opacity:1;stroke:none;stroke-width:10;stroke-miterlimit:4;stroke-dasharray:none;stroke-opacity:1"
         sodipodi:type="star" />
      <g
         id="g4349">
        <flowRoot
           xml:space="preserve"
           id="flowRoot4314"
           style="font-style:normal;font-variant:normal;font-weight:900;font-stretch:normal;font-size:39.9994812px;line-height:125%;font-family:Roboto;-inkscape-font-specification:'Roboto, Heavy';text-align:start;letter-spacing:0px;word-spacing:0px;writing-mode:lr-tb;text-anchor:start;fill:#ffffff;fill-opacity:1;stroke:none;stroke-width:1px;stroke-linecap:butt;stroke-linejoin:miter;stroke-opacity:1"
           transform="matrix(11.102331,0,0,11.102331,8560.2957,-4577.4787)"><flowRegion
             id="flowRegion4316"><rect
               id="rect4318"
               width="337.14285"
               height="342.85715"
               x="-757.14288"
               y="429.50507"
               style="font-style:normal;font-variant:normal;font-weight:900;font-stretch:normal;font-size:39.9994812px;line-height:125%;font-family:Roboto;-inkscape-font-specification:'Roboto, Heavy';text-align:start;writing-mode:lr-tb;text-anchor:start;fill:#ffffff" /></flowRegion><flowPara
             id="flowPara4320"
             style="font-style:normal;font-variant:normal;font-weight:900;font-stretch:normal;font-size:39.9994812px;line-height:125%;font-family:Roboto;-inkscape-font-specification:'Roboto, Heavy';text-align:start;writing-mode:lr-tb;text-anchor:start;fill:#ffffff">2</flowPara></flowRoot>        <flowRoot
           xml:space="preserve"
           id="flowRoot4322"
           style="font-style:normal;font-variant:normal;font-weight:normal;font-stretch:normal;font-size:40.00074768px;line-height:125%;font-family:Avenir;-inkscape-font-specification:'Avenir, Normal';text-align:start;letter-spacing:0px;word-spacing:0px;writing-mode:lr-tb;text-anchor:start;fill:#ffffff;fill-opacity:1;stroke:none;stroke-width:1px;stroke-linecap:butt;stroke-linejoin:miter;stroke-opacity:1"
           transform="matrix(5.4920847,0,0,5.4920847,3948.1111,-1403.6799)"><flowRegion
             id="flowRegion4324"><rect
               id="rect4326"
               width="517.14288"
               height="237.14285"
               x="-648.57141"
               y="283.79077"
               style="font-style:normal;font-variant:normal;font-weight:normal;font-stretch:normal;font-size:40.00074768px;line-height:125%;font-family:Avenir;-inkscape-font-specification:'Avenir, Normal';text-align:start;writing-mode:lr-tb;text-anchor:start;fill:#ffffff" /></flowRegion><flowPara
             id="flowPara4328">33</flowPara></flowRoot>      </g>
    </g>
    <g
       id="g4441"
       transform="translate(-222.23356,359.61431)">
      <path
         sodipodi:type="star"
         style="opacity:1;fill:#246bb7;fill-opacity:1;stroke:none;stroke-width:10;stroke-miterlimit:4;stroke-dasharray:none;stroke-opacity:1"
         id="path4373"
         sodipodi:sides="6"
         sodipodi:cx="262.85712"
         sodipodi:cy="535.21936"
         sodipodi:r1="281.70038"
         sodipodi:r2="243.95969"
         sodipodi:arg1="0.78539816"
         sodipodi:arg2="1.3089969"
         inkscape:flatsided="true"
         inkscape:rounded="0"
         inkscape:randomized="0"
         d="M 462.04937,734.41161 189.94769,807.32103 -9.2445538,608.12878 63.664868,336.02711 335.76654,263.11769 534.95879,462.30994 Z"
         transform="matrix(1.0837417,0.62569851,-0.62569851,1.0837417,-459.23297,-1215.0025)" />
      <g
         id="g4431">
        <flowRoot
           transform="matrix(17.932693,0,0,17.932693,12687.359,-8566.8063)"
           style="font-style:normal;font-variant:normal;font-weight:900;font-stretch:normal;font-size:39.9994812px;line-height:125%;font-family:Roboto;-inkscape-font-specification:'Roboto, Heavy';text-align:start;letter-spacing:0px;word-spacing:0px;writing-mode:lr-tb;text-anchor:start;fill:#ffffff;fill-opacity:1;stroke:none;stroke-width:1px;stroke-linecap:butt;stroke-linejoin:miter;stroke-opacity:1"
           id="flowRoot4377"
           xml:space="preserve"><flowRegion
             id="flowRegion4379"><rect
               style="font-style:normal;font-variant:normal;font-weight:900;font-stretch:normal;font-size:39.9994812px;line-height:125%;font-family:Roboto;-inkscape-font-specification:'Roboto, Heavy';text-align:start;writing-mode:lr-tb;text-anchor:start;fill:#ffffff"
               y="429.50507"
               x="-757.14288"
               height="342.85715"
               width="337.14285"
               id="rect4381" /></flowRegion><flowPara
             style="font-style:normal;font-variant:normal;font-weight:900;font-stretch:normal;font-size:39.9994812px;line-height:125%;font-family:Roboto;-inkscape-font-specification:'Roboto, Heavy';text-align:start;writing-mode:lr-tb;text-anchor:start;fill:#ffffff"
             id="flowPara4383">2</flowPara></flowRoot>        <flowRoot
           transform="matrix(5.4920847,0,0,5.4920847,3054.7649,-2302.2501)"
           style="font-style:normal;font-variant:normal;font-weight:normal;font-stretch:normal;font-size:40.00074768px;line-height:125%;font-family:Avenir;-inkscape-font-specification:'Avenir, Normal';text-align:start;letter-spacing:0px;word-spacing:0px;writing-mode:lr-tb;text-anchor:start;fill:#ffffff;fill-opacity:1;stroke:none;stroke-width:1px;stroke-linecap:butt;stroke-linejoin:miter;stroke-opacity:1"
           id="flowRoot4385"
           xml:space="preserve"><flowRegion
             id="flowRegion4387"><rect
               style="font-style:normal;font-variant:normal;font-weight:normal;font-stretch:normal;font-size:40.00074768px;line-height:125%;font-family:Avenir;-inkscape-font-specification:'Avenir, Normal';text-align:start;writing-mode:lr-tb;text-anchor:start;fill:#ffffff"
               y="283.79077"
               x="-648.57141"
               height="237.14285"
               width="517.14288"
               id="rect4389" /></flowRegion><flowPara
             id="flowPara4391">33</flowPara></flowRoot>      </g>
    </g>
    <g
       transform="matrix(1.5858693,0,0,1.5858693,1279.5729,-1309.4642)"
       id="g4453">
      <path
         sodipodi:type="star"
         style="opacity:1;fill:#246bb7;fill-opacity:1;stroke:none;stroke-width:10;stroke-miterlimit:4;stroke-dasharray:none;stroke-opacity:1"
         id="path4455"
         sodipodi:sides="6"
         sodipodi:cx="262.85712"
         sodipodi:cy="535.21936"
         sodipodi:r1="281.70038"
         sodipodi:r2="243.95969"
         sodipodi:arg1="0.78539816"
         sodipodi:arg2="1.3089969"
         inkscape:flatsided="true"
         inkscape:rounded="0"
         inkscape:randomized="0"
         d="M 462.04937,734.41161 189.94769,807.32103 -9.2445538,608.12878 63.664868,336.02711 335.76654,263.11769 534.95879,462.30994 Z"
         transform="matrix(1.0837417,0.62569851,-0.62569851,1.0837417,678.75992,526.69926)" />
    </g>
    <g
       id="g4527"
       transform="matrix(1.5858693,0,0,1.5858693,280.7113,967.82124)">
      <g
         id="g4531"
         transform="translate(873.92403,-129.94206)" />
    </g>
    <g
       transform="matrix(1.5860162,0,0,1.5860162,1347.6283,1258.6228)"
       id="g4551"
       clip-path="url(#clipPath4643)">
      <path
         transform="matrix(1.0837417,0.62569851,-0.62569851,1.0837417,-459.23297,-1215.0025)"
         d="M 462.04937,734.41161 189.94769,807.32103 -9.2445538,608.12878 63.664868,336.02711 335.76654,263.11769 534.95879,462.30994 Z"
         inkscape:randomized="0"
         inkscape:rounded="0"
         inkscape:flatsided="true"
         sodipodi:arg2="1.3089969"
         sodipodi:arg1="0.78539816"
         sodipodi:r2="243.95969"
         sodipodi:r1="281.70038"
         sodipodi:cy="535.21936"
         sodipodi:cx="262.85712"
         sodipodi:sides="6"
         id="path4553"
         style="opacity:1;fill:#246bb7;fill-opacity:1;stroke:none;stroke-width:10;stroke-miterlimit:4;stroke-dasharray:none;stroke-opacity:1"
         sodipodi:type="star" />
      <path
         style="font-style:normal;font-variant:normal;font-weight:900;font-stretch:normal;font-size:717.29840088px;line-height:125%;font-family:Roboto;-inkscape-font-specification:'Roboto, Heavy';text-align:start;letter-spacing:0px;word-spacing:0px;writing-mode:lr-tb;text-anchor:start;fill:#ffffff;fill-opacity:1;stroke:none;stroke-width:1px;stroke-linecap:butt;stroke-linejoin:miter;stroke-opacity:1"
         d="m 634.75977,174.79688 c -15.09855,0 -28.4541,3.25382 -40.06836,9.75781 -11.38198,6.2717 -20.78953,16.02731 -28.22266,29.26758 l 21.94922,11.14843 c 5.11027,-8.82684 11.61597,-15.56328 19.51367,-20.20898 7.8977,-4.64571 17.07255,-6.9668 27.52539,-6.9668 14.40169,0 25.55152,3.71531 33.44922,11.14844 8.12998,7.20084 12.19531,17.42185 12.19531,30.66211 0,8.12998 -1.51154,15.09912 -4.53125,20.90625 -2.78742,5.80713 -6.62005,10.56859 -11.49804,14.28516 -4.878,3.48427 -10.68365,6.04001 -17.41993,7.66601 -6.50398,1.626 -13.35775,2.4375 -20.55859,2.4375 l -12.89063,0 0,22.99609 10.80079,0 c 8.12998,0 15.91062,0.93078 23.34375,2.78907 7.66541,1.62599 14.40185,4.41248 20.20898,8.36133 5.80713,3.94884 10.45322,9.17569 13.9375,15.67968 3.48428,6.27171 5.22656,14.05234 5.22656,23.34375 0,7.20085 -1.39421,13.82191 -4.18164,19.86133 -2.55514,6.03942 -6.27044,11.26627 -11.14844,15.67969 -4.6457,4.18113 -10.10525,7.433 -16.37695,9.75586 -6.2717,2.32285 -12.89081,3.48437 -19.85937,3.48437 -14.86626,0 -26.48148,-2.78843 -34.84375,-8.36328 -8.12999,-5.80713 -14.28566,-14.63392 -18.4668,-26.48047 l -26.48047,8.01367 c 6.73627,17.4214 16.84191,30.08082 30.31445,37.97852 13.47255,7.8977 29.26652,11.84766 47.38477,11.84766 10.68512,0 20.79076,-1.50959 30.31445,-4.5293 9.5237,-3.25199 17.8851,-7.89808 25.08594,-13.9375 7.20084,-6.03942 12.89113,-13.47394 17.07227,-22.30078 4.18113,-8.82684 6.27343,-18.93052 6.27343,-30.3125 0,-7.66542 -1.16152,-14.98262 -3.48437,-21.95117 -2.32285,-6.96856 -5.57473,-13.23961 -9.75586,-18.81446 -4.18114,-5.57484 -9.17529,-10.22093 -14.98242,-13.9375 -5.80713,-3.94885 -12.19551,-6.61996 -19.16406,-8.01367 l -1.04493,-0.69726 c 5.57485,-1.85829 10.91707,-4.5294 16.02735,-8.01368 5.11027,-3.71656 9.52367,-8.01458 13.24023,-12.89257 3.94885,-4.878 6.96803,-10.33559 9.05859,-16.375 2.32286,-6.03942 3.48438,-12.42779 3.48438,-19.16407 0,-10.22055 -1.97498,-19.28003 -5.92383,-27.17773 -3.71656,-8.12999 -8.82609,-14.86642 -15.33008,-20.20899 -6.50398,-5.57484 -14.05388,-9.75554 -22.64843,-12.54296 -8.59456,-2.78743 -17.76941,-4.18164 -27.52539,-4.18164 z m 193.94921,0 c -15.09854,0 -28.45409,3.25382 -40.06836,9.75781 -11.38197,6.2717 -20.78952,16.02731 -28.22265,29.26758 l 21.94922,11.14843 c 5.11027,-8.82684 11.61597,-15.56328 19.51367,-20.20898 7.8977,-4.64571 17.07255,-6.9668 27.52539,-6.9668 14.40169,0 25.55152,3.71531 33.44922,11.14844 8.12998,7.20084 12.19531,17.42185 12.19531,30.66211 0,8.12998 -1.51154,15.09912 -4.53125,20.90625 -2.78742,5.80713 -6.62005,10.56859 -11.49805,14.28516 -4.87799,3.48427 -10.68364,6.04001 -17.41992,7.66601 -6.50399,1.626 -13.35775,2.4375 -20.55859,2.4375 l -12.89063,0 0,22.99609 10.80078,0 c 8.12999,0 15.91063,0.93078 23.34376,2.78907 7.66541,1.62599 14.40185,4.41248 20.20898,8.36133 5.80713,3.94884 10.45322,9.17569 13.9375,15.67968 3.48428,6.27171 5.22656,14.05234 5.22656,23.34375 0,7.20085 -1.39422,13.82191 -4.18164,19.86133 -2.55514,6.03942 -6.27045,11.26627 -11.14844,15.67969 -4.6457,4.18113 -10.10525,7.433 -16.37695,9.75586 -6.2717,2.32285 -12.89082,3.48437 -19.85937,3.48437 -14.86626,0 -26.48148,-2.78843 -34.84375,-8.36328 -8.12999,-5.80713 -14.28567,-14.63392 -18.4668,-26.48047 l -26.48047,8.01367 c 6.73627,17.4214 16.83995,30.08082 30.3125,37.97852 13.47255,7.8977 29.26847,11.84766 47.38672,11.84766 10.68512,0 20.79076,-1.50959 30.31445,-4.5293 9.5237,-3.25199 17.8851,-7.89808 25.08594,-13.9375 7.20084,-6.03942 12.89113,-13.47394 17.07227,-22.30078 4.18113,-8.82684 6.27148,-18.93052 6.27148,-30.3125 0,-7.66542 -1.15957,-14.98262 -3.48242,-21.95117 -2.32286,-6.96856 -5.57668,-13.23961 -9.75782,-18.81446 -4.18113,-5.57484 -9.17528,-10.22093 -14.98242,-13.9375 -5.80713,-3.94885 -12.19355,-6.61996 -19.16211,-8.01367 l -1.04492,-0.69726 c 5.57485,-1.85829 10.91707,-4.5294 16.02735,-8.01368 5.11027,-3.71656 9.52367,-8.01458 13.24023,-12.89257 3.94885,-4.878 6.96803,-10.33559 9.05859,-16.375 2.32286,-6.03942 3.48438,-12.42779 3.48438,-19.16407 0,-10.22055 -1.97498,-19.28003 -5.92383,-27.17773 -3.71656,-8.12999 -8.82609,-14.86642 -15.33008,-20.20899 -6.50399,-5.57484 -14.05388,-9.75554 -22.64843,-12.54296 -8.59456,-2.78743 -17.76941,-4.18164 -27.5254,-4.18164 z M 246.75,224.34766 c -83.69407,0 -150.909628,26.108 -201.644531,78.32422 -50.7349036,51.84588 -75.175858,115.1723 -73.324219,189.97851 l 1.111328,3.33399 183.312502,0 c 0,-37.03278 7.96067,-67.40059 23.88476,-91.10157 16.29443,-24.0713 38.51525,-36.10742 66.66016,-36.10742 31.47786,0 54.99311,9.259 70.54688,27.77539 15.92409,18.51639 23.88671,43.32802 23.88671,74.43555 0,21.84934 -7.77826,47.58667 -23.33203,77.21289 -15.55376,29.62622 -39.8084,63.32618 -72.76758,101.09961 l -259.970699,273.30273 0,122.20704 566.044919,0 0,-144.42774 -315.51758,0 -1.66796,-3.33203 L 343.4043,779.83984 C 414.50723,702.44134 463.20673,644.11412 489.5,604.85938 c 26.6636,-39.25475 39.99414,-84.43384 39.99414,-135.53907 0,-75.91719 -24.99599,-135.72515 -74.99023,-179.42383 C 404.87999,246.19781 335.62866,224.34766 246.75,224.34766 Z"
         transform="matrix(0.63051058,0,0,0.63051058,-849.69391,-811.00095)"
         id="flowRoot4557"
         inkscape:connector-curvature="0" />
    </g>
    <g
       id="g4573"
       transform="translate(1777.8685,981.86828)" />
  </g>
</svg>
