<?xml version="1.0" standalone="no"?>
<!DOCTYPE svg PUBLIC "-//W3C//DTD SVG 20010904//EN"
 "http://www.w3.org/TR/2001/REC-SVG-20010904/DTD/svg10.dtd">
<svg version="1.0" xmlns="http://www.w3.org/2000/svg"
 width="700.000000pt" height="700.000000pt" viewBox="0 0 700.000000 700.000000"
 preserveAspectRatio="xMidYMid meet">
<metadata>
Created by potrace 1.11, written by Peter Selinger 2001-2013
</metadata>
<g transform="translate(0.000000,700.000000) scale(0.100000,-0.100000)"
fill="#000000" stroke="none">
<path d="M1284 5720 c-703 -704 -1280 -1281 -1281 -1283 -1 -2 14 -61 33 -132
19 -72 37 -137 39 -145 1 -8 31 -118 65 -245 34 -126 68 -252 75 -280 8 -27
23 -86 35 -130 12 -44 80 -298 151 -565 72 -267 146 -543 165 -615 19 -71 46
-173 60 -225 14 -52 29 -109 35 -126 5 -17 11 -40 13 -50 2 -10 14 -55 26 -99
12 -44 34 -127 50 -185 15 -58 40 -150 55 -205 14 -55 28 -107 30 -115 9 -34
66 -249 82 -305 9 -33 21 -65 27 -71 6 -6 83 -30 171 -53 88 -24 174 -47 190
-52 17 -5 82 -22 145 -39 130 -34 297 -79 540 -145 134 -36 364 -97 453 -120
9 -3 26 -7 37 -9 11 -3 24 -7 28 -10 5 -3 20 -7 33 -9 14 -3 75 -18 135 -35
60 -16 156 -42 214 -57 58 -15 116 -31 130 -35 14 -5 97 -27 185 -50 88 -23
189 -50 225 -61 36 -10 76 -20 90 -23 14 -3 41 -10 60 -15 19 -5 170 -46 335
-91 165 -44 307 -83 315 -85 28 -6 175 -45 191 -50 10 -4 422 402 1295 1275
703 704 1280 1282 1281 1283 3 3 -5 33 -97 372 -29 105 -53 195 -54 200 -12
46 -22 85 -48 179 -16 59 -31 115 -33 125 -2 9 -17 66 -33 126 -17 61 -42 153
-56 205 -13 52 -48 181 -76 285 -72 268 -115 427 -160 600 -22 83 -49 184 -61
225 -11 41 -29 107 -39 145 -10 39 -39 149 -65 245 -26 96 -83 308 -126 470
-44 162 -83 302 -87 310 -5 8 -29 19 -53 26 -24 6 -89 24 -144 38 -55 15 -125
34 -155 42 -30 9 -71 20 -90 25 -19 5 -143 38 -275 74 -442 118 -470 126 -486
130 -54 12 -258 68 -279 75 -14 5 -36 12 -50 14 -14 3 -176 46 -360 95 -184
50 -420 114 -525 141 -245 65 -446 119 -615 165 -74 21 -160 43 -190 50 -30 8
-104 27 -165 44 -60 17 -110 31 -111 31 0 0 -576 -576 -1280 -1280z"/>
</g>
</svg>
